<svg width="24" height="24" viewBox="0 0 24 24" fill="none" xmlns="http://www.w3.org/2000/svg" class="fill-current undefined"><path fill-rule="evenodd" clip-rule="evenodd" d="M5 2C4.73478 2 4.48043 2.10536 4.29289 2.29289C4.10536 2.48043 4 2.73478 4 3V21C4 21.2652 4.10536 21.5196 4.29289 21.7071C4.48043 21.8946 4.73478 22 5 22H11V24H5C4.20435 24 3.44129 23.6839 2.87868 23.1213C2.31607 22.5587 2 21.7957 2 21V3C2 2.20435 2.31607 1.44129 2.87868 0.87868C3.44129 0.316071 4.20435 0 5 0H17C17.7956 0 18.5587 0.316071 19.1213 0.87868C19.6839 1.44129 20 2.20435 20 3V14H18V3C18 2.73478 17.8946 2.48043 17.7071 2.29289C17.5196 2.10536 17.2652 2 17 2H5Z"></path><path fill-rule="evenodd" clip-rule="evenodd" d="M23.4142 17L17 23.4142L13.5858 20L15 18.5858L17 20.5858L22 15.5858L23.4142 17Z"></path></svg>