<svg width="63" height="64"  fill="none" xmlns="http://www.w3.org/2000/svg"><path d="M31 28.018h12" stroke="#00AD0C"></path><path d="M45 22.018H25a.014.014 0 0 1-.012-.007c-3.27-5.606-8.135-6.349-10.889-6.257-1.15.038-1.792 1.184-1.428 2.275l1.937 5.813c.277.83-.026 1.734-.689 2.304a17.02 17.02 0 0 0-4.673 6.48c-.331.814-1.095 1.392-1.974 1.392H4a2 2 0 0 0-2 2v10a2 2 0 0 0 2 2h5.49c.689 0 1.322.36 1.725.919a17.038 17.038 0 0 0 8.275 6.156c.873.3 1.51 1.09 1.51 2.014v2.91a2 2 0 0 0 2 2h6a2 2 0 0 0 2-2v-2a2 2 0 0 1 2-2h6a2 2 0 0 1 2 2v2a2 2 0 0 0 2 2h6a2 2 0 0 0 2-2V56.29c0-.832.52-1.567 1.272-1.923C58.02 51.642 62 45.802 62 39.017c0-9.388-7.611-17-17-17Z" fill="#CDFFC7" stroke="#00AD0C"></path><path d="M19 38.018a3 3 0 1 0 0-6 3 3 0 0 0 0 6ZM37 14.018a6 6 0 1 0 0-12 6 6 0 0 0 0 12Z" fill="#fff" stroke="#00AD0C"></path></svg>