<svg width="63" height="64"  fill="none" xmlns="http://www.w3.org/2000/svg"><circle cx="32" cy="32.018" r="29" stroke="#00AD0C"></circle><path d="M16 27.018v-4l16-8.5 16 8.5v4H16ZM48 41.518H16v4.5h32v-4.5Z" fill="#CDFFC7"></path><path d="m32 14.611-15.938 8.5v3.72h31.875v-3.72L32 14.611ZM19 41.018v-14M36 41.018v-14M28 41.018v-14M45 27.018v14" stroke="#00AD0C"></path><path d="M32 23.643a2.125 2.125 0 1 0 0-4.25 2.125 2.125 0 0 0 0 4.25ZM47.938 41.705H16.061v4.25h31.875v-4.25ZM5.333 5.351l53.334 53.333" stroke="#00AD0C"></path></svg>