<svg width="80" height="80" viewBox="0 0 80 80" fill="none" xmlns="http://www.w3.org/2000/svg" class="w-48 lg:w-80 h-48 lg:h-80 rounded-[8px] lg:rounded-md"><g clip-path="url(#clip0_3606_150251)"><path d="M12.4557 30.8443H12.4635L12.6619 31.7354L14.218 29.3771L16.6183 30.4952L18.1744 28.138L20.5747 29.2596L22.1296 26.9024L24.5299 28.0251L26.0849 25.6667L28.4852 26.7894L30.0356 24.4345L32.4359 25.5572L33.9909 23.1989L36.39 24.3215L36.4069 24.3809L36.4304 24.3729C35.2689 22.2907 34.5963 21.3334 33.9785 19.6825C33.955 19.6117 33.9303 19.5444 33.9034 19.4759C33.8429 19.3025 33.7812 19.1337 33.7241 18.9671C33.6927 18.8758 33.6635 18.788 33.6344 18.699C33.5626 18.4867 33.4976 18.2802 33.4371 18.0749C33.4057 17.9699 33.3754 17.8661 33.3474 17.7622C33.3193 17.6584 33.2902 17.5592 33.2655 17.4599C33.205 17.2317 33.1534 17.0092 33.1018 16.7902C33.0805 16.6977 33.0581 16.6065 33.0424 16.5163C32.6982 14.8597 32.668 13.4358 32.8866 12.1807C32.9012 12.0849 32.9202 11.9913 32.9393 11.9012C32.9583 11.8111 32.9785 11.7175 33.0009 11.6285C33.1057 11.19 33.2459 10.761 33.4202 10.3461C33.4897 10.1829 33.5615 10.0221 33.6389 9.86575C33.8734 9.39172 34.1468 8.93868 34.4561 8.51145C34.557 8.3654 34.6647 8.22507 34.7768 8.08587C34.8317 8.01513 34.8889 7.9444 34.9461 7.87594C35.2319 7.53365 35.5391 7.19936 35.8665 6.87305L17.5073 12.3268C17.4625 12.337 8.71454 15.105 12.4557 30.8443Z" fill="#919DAB"></path><path d="M33.9827 19.6823C34.6004 21.3321 12.7188 17.2601 12.7188 17.2601C14.4565 13.2907 17.4801 12.3357 17.507 12.33L35.865 6.87744C35.5365 7.20489 35.2305 7.53805 34.9446 7.88147C34.8874 7.94993 34.8325 8.02067 34.7753 8.09141C34.6632 8.22908 34.5559 8.37094 34.4535 8.51698C34.1443 8.94393 33.8709 9.39658 33.6363 9.87014C33.5589 10.0265 33.4872 10.1873 33.4188 10.3505C33.2444 10.7658 33.1042 11.1951 32.9995 11.634C32.9771 11.7219 32.958 11.8132 32.9378 11.9067C32.9176 12.0003 32.8997 12.0904 32.8851 12.1851C32.6665 13.4402 32.6957 14.8629 33.041 16.5207C33.0566 16.6097 33.0779 16.7021 33.1004 16.7934C33.1497 17.0136 33.2035 17.2372 33.2641 17.4643C33.2887 17.5635 33.3167 17.6651 33.3459 17.7666C33.375 17.8682 33.4042 17.9743 33.4345 18.0781C33.495 18.2835 33.5611 18.4911 33.6329 18.7034C33.662 18.7912 33.6901 18.8802 33.7226 18.9715C33.7786 19.1381 33.8414 19.3058 33.902 19.4803C33.9289 19.5477 33.9524 19.6161 33.9771 19.6868L33.9827 19.6823Z" fill="#20252A"></path><path d="M55.1837 70.5802L44.8763 74.399C44.3501 74.594 43.7712 74.5815 43.2536 74.364C42.7359 74.1466 42.317 73.7398 42.0792 73.2238L35.3133 58.5478L35.0891 58.0572L30.108 47.2524L27.3053 41.1746C25.6349 38.0245 21.2648 33.2416 19.2625 30.0002C17.1649 26.0457 18.5136 21.7101 22.2682 20.3193L35.0947 15.5684L48.5401 52.389L55.1837 70.5802Z" fill="#009420"></path><path d="M39.3042 47.7705L35.6719 59.3192L42.0835 73.2227C42.3214 73.7383 42.7403 74.1446 43.2577 74.3618C43.775 74.5791 44.3535 74.5915 44.8795 74.3968L55.1824 70.5803L39.3042 47.7705Z" fill="#20252A"></path><path d="M47.56 70.9793L28.5371 17.9971L42.3558 12.8788C45.7763 11.6113 50.0914 13.8509 51.4603 17.6024L67.8855 63.4456C67.9864 63.7276 68.0316 64.0271 68.0185 64.327C68.0054 64.6268 67.9344 64.9211 67.8094 65.1929C67.6845 65.4647 67.508 65.7088 67.2902 65.9112C67.0724 66.1135 66.8176 66.2702 66.5402 66.3721L50.4322 72.3404C49.8739 72.547 49.2579 72.5197 48.7194 72.2645C48.1809 72.0093 47.7639 71.5471 47.56 70.9793Z" fill="#0AF53D"></path><path d="M30.829 17.146L21.9902 20.4194C25.4107 19.1529 29.7258 21.3926 31.0947 25.144L32.5118 20.3224L30.829 17.146Z" fill="#0AF53D"></path><path d="M50.3768 69.8888L65.0657 64.4478C65.6475 64.2323 65.9475 63.5776 65.7357 62.9855L62.6318 54.3065C62.42 53.7144 61.7767 53.4091 61.1948 53.6246L46.506 59.0655C45.9242 59.281 45.6242 59.9358 45.836 60.5279L48.9399 69.2069C49.1517 69.799 49.795 70.1043 50.3768 69.8888Z" fill="#20252A"></path><path d="M46.0034 57.2489L60.4341 51.9036C61.0875 51.6615 61.4244 50.9263 61.1866 50.2613L53.8725 29.8103C53.6347 29.1453 52.9122 28.8025 52.2588 29.0445L37.8281 34.3898C37.1747 34.6318 36.8378 35.3671 37.0756 36.032L44.3897 56.4831C44.6275 57.1481 45.35 57.4909 46.0034 57.2489Z" fill="#20252A"></path><path d="M34.4721 28.7451L32.4799 23.1727C31.9777 21.9234 32.6963 20.5611 34.138 20.0272L45.5508 15.7999C47.1944 15.1907 49.1092 15.8958 49.681 17.3208" fill="#0AF53D"></path><path d="M34.4716 28.9161C34.4369 28.916 34.4031 28.9049 34.3748 28.8845C34.3465 28.8641 34.3251 28.8353 34.3136 28.802L32.3214 23.2296C32.205 22.9414 32.1476 22.6321 32.1526 22.3206C32.1577 22.0091 32.225 21.7019 32.3505 21.4178C32.6555 20.7161 33.2698 20.1627 34.0793 19.8649L45.4921 15.6377C47.2354 14.9919 49.2253 15.7324 49.8363 17.2544C49.8447 17.2753 49.849 17.2976 49.8489 17.3201C49.8488 17.3426 49.8444 17.3649 49.8359 17.3856C49.8273 17.4064 49.8149 17.4252 49.7992 17.4411C49.7835 17.457 49.7649 17.4695 49.7444 17.4781C49.7239 17.4866 49.702 17.491 49.6799 17.4909C49.6578 17.4908 49.6359 17.4863 49.6155 17.4776C49.5951 17.4689 49.5766 17.4562 49.561 17.4403C49.5454 17.4243 49.5331 17.4053 49.5247 17.3845C48.9888 16.0507 47.1591 15.3844 45.6075 15.9595L34.1947 20.181C33.4716 20.448 32.9256 20.9351 32.6577 21.5501C32.5493 21.7929 32.4913 22.0557 32.4873 22.3223C32.4832 22.5889 32.5332 22.8535 32.6342 23.0995L34.632 28.6856C34.6409 28.7114 34.6437 28.7389 34.64 28.766C34.6363 28.7931 34.6263 28.8189 34.6109 28.8412C34.5954 28.8636 34.5749 28.8818 34.551 28.8945C34.5272 28.9071 34.5007 28.9137 34.4739 28.9138L34.4716 28.9161Z" fill="#009420"></path><path d="M63.8396 56.5523L46.5117 62.9673L46.6267 63.2889L63.9546 56.874L63.8396 56.5523Z" fill="#0AF53D"></path><path d="M56.6442 54.7848L56.3281 54.9019L60.6242 66.9141L60.9402 66.797L56.6442 54.7848Z" fill="#0AF53D"></path><path d="M51.0465 56.8595L50.7305 56.9766L55.0265 68.9888L55.3426 68.8717L51.0465 56.8595Z" fill="#0AF53D"></path><path d="M59.2063 62.3523L47.7773 66.5835L47.8923 66.9052L59.3213 62.674L59.2063 62.3523Z" fill="#0AF53D"></path><path d="M38.0182 47.4862L35.3141 58.5477L35.0898 58.0571L37.6942 47.4041C37.6987 47.3815 37.7078 47.3601 37.7206 47.3412C37.7335 47.3223 37.7501 47.3062 37.7692 47.2939C37.7884 47.2816 37.8097 47.2734 37.8321 47.2698C37.8544 47.2661 37.8773 47.2671 37.8992 47.2726C37.9212 47.2781 37.9419 47.2881 37.9599 47.302C37.978 47.3158 37.9932 47.3332 38.0045 47.3532C38.0158 47.3731 38.023 47.3952 38.0258 47.418C38.0285 47.4409 38.0267 47.4641 38.0204 47.4862H38.0182Z" fill="#20252A"></path><path d="M52.5195 26.9L51.7684 27.175L36.083 32.9379V32.9014C35.9057 30.4587 35.4451 28.046 34.7108 25.7134C33.787 22.7367 32.528 20.1445 31.2881 18.3646C26.1669 11.018 20.5165 11.5018 18.0098 12.1784L37.9396 6.18272C45.0485 5.62251 52.6193 11.8019 52.5195 26.9Z" fill="#D5DEE8"></path><path d="M35.9941 33.1777C35.9546 33.1776 35.9164 33.1634 35.8861 33.1375C35.8558 33.1116 35.8355 33.0757 35.8287 33.0361C35.8219 32.9964 35.829 32.9556 35.8488 32.9208C35.8686 32.886 35.8998 32.8594 35.937 32.8457L52.6672 26.6492C52.7081 26.6377 52.7518 26.6425 52.7895 26.6625C52.8272 26.6825 52.856 26.7163 52.8702 26.757C52.8844 26.7978 52.8829 26.8425 52.866 26.8822C52.8492 26.9218 52.8182 26.9535 52.7793 26.9709L36.0513 33.1674C36.033 33.1742 36.0136 33.1777 35.9941 33.1777Z" fill="#20252A"></path></g><defs><clipPath id="clip0_3606_150251"><rect width="56.4957" height="68.3895" fill="white" transform="translate(11.5254 6.14746)"></rect></clipPath></defs></svg>