<svg width="80" height="80" viewBox="0 0 80 80" fill="none" xmlns="http://www.w3.org/2000/svg" class="w-48 lg:w-80 h-48 lg:h-80 rounded-[8px] lg:rounded-md"><g clip-path="url(#clip0_3606_150254)"><g clip-path="url(#clip1_3606_150254)"><path d="M46.8665 11.6115C45.6774 11.2854 44.369 11.4164 43.2523 10.8915C41.0396 9.85218 40.0771 6.50323 37.6331 6.48061C36.1621 6.46742 34.8489 7.79041 33.4004 7.53128C32.2349 7.32209 31.5045 6.18567 30.5401 5.49685C28.3011 3.89776 24.6117 5.41392 24.1379 8.1287C24.0007 8.91364 24.0778 9.77868 23.6407 10.4439C23.2449 11.0461 22.5259 11.3297 21.9327 11.7387C20.2098 12.9269 19.5781 15.4598 20.5406 17.3209C21.224 18.641 22.5964 19.6672 22.7204 21.1495C22.7618 21.6413 22.6537 22.1342 22.6443 22.6279C22.6011 24.9827 24.8081 26.8363 27.08 27.4337C29.352 28.0311 31.7517 27.7475 34.0941 27.919C36.4394 28.0905 38.7432 28.7218 41.095 28.7586C43.4469 28.7963 45.9942 28.1037 47.3854 26.203C49.0416 23.9415 49.2202 20.0809 50.0022 17.434C50.7176 15.0217 49.4928 12.3323 46.8665 11.6115Z" fill="#20252A"></path><path d="M38.5035 80.08H74.6182C73.6146 76.7378 72.1822 71.6923 70.5157 66.0965C67.8709 57.2163 62.7011 52.5251 57.0622 50.2122C55.3536 49.51 53.6 49.0274 51.8605 48.7127C49.9113 48.3609 47.9799 48.2202 46.144 48.2202H38.5035H30.8629C29.027 48.2202 27.0956 48.3609 25.1464 48.7127C23.4069 49.0274 21.6533 49.51 19.9447 50.2122C14.3058 52.5251 9.13603 57.2163 6.4912 66.0965C4.82472 71.6923 3.3923 76.7378 2.38867 80.08H38.5035Z" fill="#009420"></path><path d="M49.1969 48.3511C49.1724 50.3394 48.4637 52.5416 47.6863 54.2283C46.078 57.7252 42.3539 60.4155 36.7516 59.5759C31.8017 58.8324 28.8934 54.8559 28.1913 52.3701C27.8294 51.0923 27.6235 49.5073 27.6311 48.354C28.6979 48.2786 29.7469 48.2456 30.7678 48.2456H46.11C47.1148 48.2456 48.1469 48.2776 49.1969 48.3511Z" fill="#E09661"></path><path d="M45.7593 48.2456C43.931 52.0685 40.7201 52.5001 39.3797 52.501H39.3712C37.1538 52.501 35.444 51.6963 34.2907 50.1104C34.2502 50.0548 34.2117 49.9983 34.1741 49.9436C35.115 51.0659 36.6519 52.2004 39.0197 52.2004C41.8142 52.2004 43.8652 50.9066 45.2752 48.2456H44.8992C44.2215 49.332 42.4205 51.5286 39.015 51.3382C37.3512 51.2459 36.0475 50.6569 35.1357 49.5865C35.9507 50.2762 37.3512 51.0235 39.5921 51.0527H39.6852C42.6235 51.0527 44.0955 49.2501 44.6877 48.2446H33.9918C34.3734 49.252 35.5944 51.4607 38.9981 51.6501C40.5283 51.7359 41.7484 51.3608 42.7016 50.8143C41.176 51.8857 39.6739 51.8857 39.0197 51.8857C35.6038 51.8857 34.0049 49.3961 33.4485 48.2446H33.0273C33.1712 48.729 33.4672 49.5026 34.0303 50.2828C34.8669 51.4381 36.4714 52.8139 39.3722 52.8139H39.3806C40.7981 52.8129 44.214 52.354 46.1052 48.2446H45.7593V48.2456Z" fill="#20252A"></path><path d="M53.1413 34.5302C53.0558 34.6094 52.9655 34.6857 52.8743 34.7582C52.7362 34.8704 52.5923 34.975 52.4438 35.072H52.4429C52.3395 35.1418 52.2352 35.2049 52.1271 35.2661C52.0509 35.3095 51.9729 35.3519 51.893 35.3905H51.8921C51.7144 35.48 51.533 35.5601 51.345 35.6308C51.3008 35.6478 51.2566 35.6647 51.2115 35.6798C51.094 35.7194 50.9756 35.758 50.8553 35.791H50.8543C50.4219 35.9088 49.9689 35.9766 49.5008 35.9861C46.4139 36.052 43.859 33.5983 43.7923 30.5037C43.7265 27.4092 46.1751 24.8471 49.262 24.7811C52.3489 24.7142 54.9037 27.1689 54.9695 30.2634C55.0053 31.9502 54.2956 33.4776 53.1413 34.5302Z" fill="#E09661"></path><path d="M52.1266 35.2663C51.7769 35.0797 51.4291 34.8922 51.0795 34.7056C51.3502 34.9346 51.6218 35.1626 51.8916 35.3907C51.7139 35.4802 51.5325 35.5603 51.3445 35.631C51.1951 35.5339 51.0447 35.4368 50.8952 35.3388C50.9996 35.4538 51.1039 35.5669 51.2111 35.6799C51.0936 35.7195 50.9751 35.7582 50.8548 35.7911H50.8539C50.602 35.5433 50.35 35.2964 50.0981 35.0486C50.0417 34.993 50.038 34.9214 50.0643 34.8649C50.0023 34.7904 49.9402 34.7188 49.8791 34.6434C49.755 34.4908 49.9787 34.3381 50.115 34.4323C50.3576 34.6001 50.6029 34.765 50.8501 34.9289C50.4704 34.6095 50.0906 34.2891 49.7118 33.9687C49.5746 33.8538 49.7259 33.6182 49.8848 33.7039C50.7373 34.16 51.5908 34.6161 52.4424 35.0731C52.3381 35.1419 52.2337 35.205 52.1266 35.2663Z" fill="#20252A"></path><path d="M53.1402 34.5304C53.0547 34.6095 52.9644 34.6858 52.8732 34.7584C51.7265 34.226 50.5994 33.654 49.494 33.0415C49.3145 32.9426 49.4527 32.6542 49.6322 32.7541C50.779 33.3883 51.9502 33.981 53.1402 34.5304Z" fill="#20252A"></path><path d="M27.4787 36.4573C30.566 36.4573 33.0687 33.9483 33.0687 30.8534C33.0687 27.7585 30.566 25.2495 27.4787 25.2495C24.3914 25.2495 21.8887 27.7585 21.8887 30.8534C21.8887 33.9483 24.3914 36.4573 27.4787 36.4573Z" fill="#E09661"></path><path d="M38.7789 45.8093C32.2621 45.9497 26.8657 40.7661 26.7256 34.2331L26.5555 26.2612C26.4155 19.7282 31.5863 14.3185 38.1031 14.1781C44.6199 14.0377 50.0163 19.2213 50.1564 25.7543L50.3265 33.7262C50.4656 40.2592 45.2958 45.6689 38.7789 45.8093Z" fill="#E09661"></path><path d="M41.9895 18.8891C41.3522 19.6571 40.9245 20.6653 40.0522 21.1101C38.9901 21.6519 37.7079 21.1412 36.5424 21.3579C35.875 21.4823 35.2527 21.8555 34.8166 22.3945C34.2282 23.121 33.9913 24.101 33.4047 24.8303C32.492 25.9658 30.9091 26.2664 29.4926 26.1062C28.609 26.0063 27.7527 25.7566 26.8945 25.5304C26.1782 25.342 25.0531 25.3637 24.5286 24.7681C24.1328 24.3186 24.084 23.6392 24.1986 23.0428C24.4148 21.9214 27.0251 15.3498 28.7697 14.7316C30.7164 14.0419 35.3712 12.2166 41.8598 14.1361C43.8986 14.7392 46.1423 16.5851 47.5166 18.3237C45.9816 17.8309 43.8958 17.2862 42.4877 18.3925C42.3053 18.5376 42.1418 18.7063 41.9895 18.8891Z" fill="#20252A"></path><path d="M52.7996 25.9505C51.3774 24.9253 50.099 24.8254 50.099 24.8254C50.099 24.8254 47.0018 23.2772 47.1813 18.1529L49.7578 17.0137C52.7554 17.4113 53.842 19.1697 53.5262 21.6093C53.3194 23.2084 52.7996 25.9505 52.7996 25.9505Z" fill="#20252A"></path><path d="M47.79 69.0732H29.0883C29.0102 69.0732 28.9473 69.0101 28.9473 68.9319C28.9473 68.8537 29.0102 68.7905 29.0883 68.7905H47.79C47.868 68.7905 47.931 68.8537 47.931 68.9319C47.931 69.0101 47.868 69.0732 47.79 69.0732Z" fill="#20252A"></path></g><g clip-path="url(#clip2_3606_150254)"><path d="M81.5558 45.0856C80.6255 48.1016 78.1035 52.8602 77.4227 55.7331L76.4477 61.1823L76.4475 61.1843L72.4607 83.4683C72.1085 84.9474 70.7142 86.0504 69.3429 85.9304L61.1009 85.21L62.6022 69.2787L65.6412 37.0338L77.0506 38.0313C80.3912 38.3234 82.4093 41.4818 81.5558 45.0856Z" fill="#00CC2C"></path><path d="M69.0999 63.5951L74.5096 72.0027L72.4584 83.4685C72.1063 84.9476 70.7119 86.0505 69.3406 85.9306L61.0986 85.2101L69.0999 63.5951Z" fill="#20252A"></path><path d="M67.4708 82.6058L71.4715 37.5439L59.1789 36.47C56.1364 36.2043 53.1151 38.9257 52.8081 42.2106L49.3153 81.8772C49.199 83.1943 50.0122 84.2415 51.2329 84.3483L64.2846 85.4889C65.8109 85.6234 67.3246 84.2531 67.4708 82.6058Z" fill="#0AF53D"></path><path d="M69.4369 37.365L77.2995 38.0521C74.257 37.7864 71.2357 40.5077 70.9287 43.7927L68.7513 40.2607L69.4369 37.365Z" fill="#0AF53D"></path><path d="M65.8654 81.6956L66.4307 74.6227C66.484 74.0164 66.0694 73.529 65.4556 73.4744L53.3022 72.4128C52.5423 72.3464 51.8 72.9619 51.734 73.7116L51.1686 80.7845C51.1153 81.3909 51.53 81.8782 52.1438 81.9328L64.2975 82.9953C65.0571 83.0608 65.7993 82.4454 65.8654 81.6956Z" fill="#20252A"></path><path d="M68.468 51.232C68.4494 51.2386 68.4295 51.2417 68.4086 51.2392L53.7383 49.9571C53.6608 49.9498 53.6034 49.8813 53.6098 49.8041C53.6162 49.7269 53.6855 49.6692 53.7627 49.6757L68.433 50.9578C68.5106 50.9651 68.5679 51.0335 68.5615 51.1107C68.5559 51.1676 68.5185 51.2139 68.468 51.232Z" fill="#20252A"></path><path d="M64.618 82.9327L51.9375 81.8245C51.3642 81.7743 50.9403 81.2694 50.9907 80.697L51.6361 73.3109C51.6862 72.7376 52.1912 72.3137 52.7635 72.3641L65.444 73.4724C66.0173 73.5225 66.4412 74.0275 66.3908 74.5998L65.7454 81.986C65.6962 82.5589 65.1912 82.9828 64.618 82.9327Z" fill="#20252A"></path><path d="M65.5464 72.2574L52.8668 71.1489C52.2935 71.0987 51.8696 70.5938 51.92 70.0214L53.4569 52.4404C53.507 51.8671 54.012 51.4432 54.5844 51.4937L67.2648 52.6019C67.8381 52.652 68.262 53.157 68.2116 53.7294L66.6747 71.3104C66.6246 71.8836 66.1196 72.3076 65.5464 72.2574Z" fill="#20252A"></path><path d="M69.1089 47.4066L69.7239 42.5524C69.8634 41.4488 68.9905 40.5197 67.7086 40.4068L57.213 39.4898C55.7499 39.3617 54.3496 40.3388 54.1898 41.5985" fill="#0AF53D"></path><path d="M69.156 47.5395C69.1356 47.5468 69.1136 47.5497 69.0907 47.5469C69.0134 47.5375 68.9581 47.4663 68.9683 47.3888L69.5833 42.5346C69.6405 42.0847 69.5197 41.6593 69.2334 41.305C68.8845 40.8732 68.3379 40.6038 67.6955 40.5473L57.1998 39.6303C55.8193 39.5097 54.4784 40.4377 54.3285 41.6159C54.3191 41.6932 54.2477 41.7476 54.1704 41.7382C54.0931 41.7289 54.0378 41.6577 54.048 41.5801C54.2182 40.2349 55.6726 39.2134 57.2233 39.3492L67.7202 40.2668C68.4407 40.3293 69.0566 40.636 69.454 41.1284C69.784 41.538 69.9296 42.0494 69.8638 42.5703L69.2488 47.4245C69.2413 47.4791 69.2038 47.5225 69.156 47.5395Z" fill="#00CC2C"></path><path d="M61.4572 75.982L61.7405 72.7425L61.4591 72.7181L61.1758 75.9576L56.5385 75.5529L56.8215 72.3125L56.5409 72.2877L56.258 75.5281L51.1607 75.0828L51.136 75.3633L56.2333 75.8086L55.9499 79.0562L50.8526 78.6109L50.8281 78.8923L55.9245 79.3379L55.6234 82.7876L55.9039 82.8123L56.2051 79.3627L60.8433 79.7671L60.5415 83.2179L60.8221 83.2427L61.4328 76.2634L66.5498 76.7107L66.5742 76.4293L61.4572 75.982ZM60.868 79.4865L56.2304 79.0809L56.5138 75.8334L61.1514 76.239L60.868 79.4865Z" fill="#0AF53D"></path><path d="M74.7185 71.2223C74.6547 71.245 74.5816 71.2192 74.5475 71.1574L70.0802 63.0897C70.0427 63.0212 70.0671 62.9356 70.1357 62.8981C70.203 62.8601 70.2898 62.8851 70.3273 62.9536L74.7946 71.0213C74.8321 71.0898 74.8077 71.1755 74.7391 71.2129C74.7332 71.216 74.7256 71.2197 74.7185 71.2223Z" fill="#20252A"></path></g><path d="M63.4769 26.4684L65.2109 21.6689L70.0104 19.9388L65.2122 18.2048L63.4808 13.4053L61.7468 18.2035L56.9473 19.9349L61.7468 21.6689L63.4769 26.4684Z" fill="#00EB33"></path><path d="M71.9293 18.0158L72.8473 15.1922L75.3885 14.1751L72.8485 13.1551L71.9318 10.3315L71.0139 13.1537L68.4727 14.1722L71.0139 15.1922L71.9293 18.0158Z" fill="#00EB33"></path></g><defs><clipPath id="clip0_3606_150254"><rect width="80" height="80" fill="white"></rect></clipPath><clipPath id="clip1_3606_150254"><rect width="72.2316" height="76.0737" fill="white" transform="translate(2.38867 4.18408)"></rect></clipPath><clipPath id="clip2_3606_150254"><rect width="45.9254" height="51.2614" fill="white" transform="translate(35.6777 44.3809) rotate(-19.6402)"></rect></clipPath></defs></svg>