<svg width="80" height="80" viewBox="0 0 80 80" fill="none" xmlns="http://www.w3.org/2000/svg" class="w-48 lg:w-80 h-48 lg:h-80 rounded-[8px] lg:rounded-md"><g clip-path="url(#clip0_3606_150253)"><g clip-path="url(#clip1_3606_150253)"><path d="M9.46847 15.2447L9.41196 24.1136L9.40154 25.9252L9.39504 26.8903L9.18144 60.9904C9.16252 64.2241 11.7661 66.8605 14.9997 66.8794L38.7235 67.0273C41.9562 67.0499 44.5929 64.4451 44.6118 61.2115L44.8983 15.4682C44.9193 12.2364 42.3161 9.59878 39.0831 9.57742L26.6711 9.50076L15.3593 9.42951C12.1257 9.41059 9.48921 12.0141 9.46847 15.2447Z" fill="#20252A"></path><path d="M9.46031 15.2453L9.40381 24.1143L23.0025 16.8589L28.929 13.6936C28.4497 13.1508 27.6146 11.5325 26.6639 9.5029L15.3511 9.43013C12.1175 9.41121 9.48106 12.0148 9.46031 15.2453Z" fill="#00EB33"></path><path d="M9.40612 25.9243L9.39962 26.8894C13.314 24.8271 17.2271 22.7644 21.1414 20.7021C21.3455 20.5913 21.3656 20.2737 21.2466 20.1026C21.098 19.8994 20.8545 19.8888 20.6471 19.9974C19.3481 20.6859 18.0406 21.3722 16.7422 22.0582C14.2989 23.3457 11.854 24.6341 9.40612 25.9243Z" fill="#00EB33"></path><path d="M21.5693 66.9191L47.2635 67.0798C50.0311 67.097 52.2885 64.8674 52.3057 62.0998L52.6027 14.6733C52.6199 11.9058 50.3903 9.6483 47.6228 9.63108L21.9286 9.47045C19.1611 9.45324 16.9036 11.6828 16.8852 14.4501L16.5882 61.8766C16.5722 64.6445 18.8018 66.9019 21.5693 66.9191Z" fill="#009420"></path><path d="M20.6837 58.5425L48.2461 58.7144L48.5001 17.9603L20.9378 17.7884L20.6837 58.5425Z" fill="#00EB33"></path><path d="M44.6277 58.6918L48.2461 58.7144L48.5001 17.9603L44.8817 17.9377L44.6277 58.6918Z" fill="white"></path><path d="M34.4556 14.8155C35.1107 14.98 35.7751 14.5823 35.9396 13.9273C36.1041 13.2722 35.7064 12.6078 35.0513 12.4433C34.3963 12.2789 33.7319 12.6765 33.5674 13.3316C33.4029 13.9867 33.8006 14.651 34.4556 14.8155Z" fill="#20252A"></path></g><path d="M54.1584 57.31C53.6269 57.7241 52.9908 57.9831 52.3059 58.0815L52.2933 53.9577L52.2852 51.4483L52.4864 50.8853L52.5053 50.8988C53.2155 51.4032 53.8534 51.8571 54.3443 52.4048C54.874 52.994 55.234 53.6916 55.3297 54.6778C55.428 55.6948 55.0012 56.654 54.1584 57.31Z" fill="#20252A"></path><path d="M54.5638 44.2774L52.3548 50.4558C52.3313 50.4395 52.3079 50.4224 52.2844 50.4052L52.279 48.7368L52.2682 45.4622L52.2637 44.152C52.815 44.0139 53.4133 44.0067 54.0241 44.1321C54.2028 44.1691 54.3833 44.2178 54.5638 44.2774Z" fill="#20252A"></path><path d="M74.0609 51.0187C74.06 51.9932 73.9698 52.947 73.802 53.8692C73.7406 54.2238 73.6612 54.5748 73.5746 54.9231C73.4645 55.3716 73.3291 55.8129 73.1766 56.2478C73.0657 56.5735 72.9411 56.8939 72.8022 57.2124C72.7264 57.4064 72.637 57.6004 72.545 57.7935C72.4006 58.0985 72.2517 58.399 72.0839 58.6968C71.9837 58.879 71.8845 59.0568 71.7744 59.2328C69.3263 63.3078 65.1097 66.198 60.1928 66.8404C59.5106 66.9298 58.8149 66.9758 58.1084 66.9758C55.6071 66.9749 52.3306 66.9749 52.3306 66.9749V66.8404L52.3036 58.353C53.0489 58.2537 53.7428 57.974 54.3212 57.5237C55.2389 56.809 55.7036 55.7623 55.5953 54.6515C55.4943 53.6075 55.1081 52.8622 54.5558 52.2423C54.0379 51.6576 53.371 51.1847 52.6591 50.6776L52.5788 50.6199L54.813 44.3702C56.2594 44.9522 57.0526 46.2687 57.3152 47.3317C57.3332 47.4039 57.4063 47.4481 57.4785 47.4301C57.5516 47.4129 57.5958 47.3389 57.5778 47.2667C57.298 46.1361 56.4507 44.7329 54.9041 44.1157L55.2254 43.2188L55.4338 42.6359C55.4591 42.5655 55.4221 42.4879 55.3517 42.4626C55.2813 42.4374 55.2037 42.4744 55.1784 42.5448L54.8301 43.5175L54.6497 44.0237C54.5333 43.984 54.416 43.9497 54.2986 43.9208C53.6011 43.7449 52.9 43.7331 52.2575 43.8793L52.2305 36.8401H53.6742L64.5944 36.416C64.8263 36.5207 65.0537 36.6281 65.2811 36.7436C65.6754 36.9394 66.0589 37.1514 66.4271 37.3806C62.7293 37.5593 59.0333 37.7389 55.3345 37.9202C54.8771 37.9428 54.8852 38.6547 55.3454 38.634C59.3689 38.4364 63.397 38.2397 67.4224 38.042C67.4621 38.0709 67.5054 38.1025 67.5442 38.1323C68.1767 38.5952 68.7741 39.1041 69.3308 39.6554C70.8549 41.1606 72.0758 42.9725 72.8942 44.9919C73.2633 45.8979 73.5502 46.8462 73.7487 47.8271C73.9527 48.8549 74.0627 49.9232 74.0609 51.0187Z" fill="#20252A"></path><path d="M52.2558 50.7215C52.2648 50.7278 52.273 50.7341 52.2811 50.7395V50.6511L52.2558 50.7215ZM52.2558 50.7215C52.2648 50.7278 52.273 50.7341 52.2811 50.7395V50.6511L52.2558 50.7215ZM52.2558 50.7215C52.2648 50.7278 52.273 50.7341 52.2811 50.7395V50.6511L52.2558 50.7215ZM55.3274 54.6773C55.2317 53.6911 54.8717 52.9936 54.342 52.4043C53.8512 51.8566 53.2132 51.4027 52.5031 50.8983L52.4841 50.8848L52.2829 51.4478L51.0494 54.8975L49.999 57.8338C50.7778 58.1063 51.5691 58.1866 52.3036 58.081C52.9885 57.9826 53.6247 57.7237 54.1562 57.3095C54.9989 56.6535 55.4258 55.6943 55.3274 54.6773ZM55.3274 54.6773C55.2317 53.6911 54.8717 52.9936 54.342 52.4043C53.8512 51.8566 53.2132 51.4027 52.5031 50.8983L52.4841 50.8848L52.2829 51.4478L51.0494 54.8975L49.999 57.8338C50.7778 58.1063 51.5691 58.1866 52.3036 58.081C52.9885 57.9826 53.6247 57.7237 54.1562 57.3095C54.9989 56.6535 55.4258 55.6943 55.3274 54.6773ZM52.2558 50.7215C52.2648 50.7278 52.273 50.7341 52.2811 50.7395V50.6511L52.2558 50.7215ZM52.2558 50.7215C52.2648 50.7278 52.273 50.7341 52.2811 50.7395V50.6511L52.2558 50.7215ZM55.3274 54.6773C55.2317 53.6911 54.8717 52.9936 54.342 52.4043C53.8512 51.8566 53.2132 51.4027 52.5031 50.8983L52.4841 50.8848L52.2829 51.4478L51.0494 54.8975L49.999 57.8338C50.7778 58.1063 51.5691 58.1866 52.3036 58.081C52.9885 57.9826 53.6247 57.7237 54.1562 57.3095C54.9989 56.6535 55.4258 55.6943 55.3274 54.6773ZM55.3274 54.6773C55.2317 53.6911 54.8717 52.9936 54.342 52.4043C53.8512 51.8566 53.2132 51.4027 52.5031 50.8983L52.4841 50.8848L52.2829 51.4478L51.0494 54.8975L49.999 57.8338C50.7778 58.1063 51.5691 58.1866 52.3036 58.081C52.9885 57.9826 53.6247 57.7237 54.1562 57.3095C54.9989 56.6535 55.4258 55.6943 55.3274 54.6773ZM52.2558 50.7215C52.2648 50.7278 52.273 50.7341 52.2811 50.7395V50.6511L52.2558 50.7215ZM52.2558 50.7215C52.2648 50.7278 52.273 50.7341 52.2811 50.7395V50.6511L52.2558 50.7215ZM55.3274 54.6773C55.2317 53.6911 54.8717 52.9936 54.342 52.4043C53.8512 51.8566 53.2132 51.4027 52.5031 50.8983L52.4841 50.8848L52.2829 51.4478L51.0494 54.8975L49.999 57.8338C50.7778 58.1063 51.5691 58.1866 52.3036 58.081C52.9885 57.9826 53.6247 57.7237 54.1562 57.3095C54.9989 56.6535 55.4258 55.6943 55.3274 54.6773ZM55.3274 54.6773C55.2317 53.6911 54.8717 52.9936 54.342 52.4043C53.8512 51.8566 53.2132 51.4027 52.5031 50.8983L52.4841 50.8848L52.2829 51.4478L51.0494 54.8975L49.999 57.8338C50.7778 58.1063 51.5691 58.1866 52.3036 58.081C52.9885 57.9826 53.6247 57.7237 54.1562 57.3095C54.9989 56.6535 55.4258 55.6943 55.3274 54.6773ZM52.2558 50.7215C52.2648 50.7278 52.273 50.7341 52.2811 50.7395V50.6511L52.2558 50.7215ZM52.2594 44.1515C51.8335 44.2561 51.4356 44.4393 51.0819 44.6974C50.2869 45.2776 49.8493 46.1637 49.8826 47.1283C49.8844 47.1725 49.8862 47.2158 49.8908 47.2592L52.2639 45.4617L52.2594 44.1515ZM52.2558 50.7215C52.2648 50.7278 52.273 50.7341 52.2811 50.7395V50.6511L52.2558 50.7215ZM54.0199 44.1316C53.409 44.0062 52.8108 44.0134 52.2594 44.1515C51.8335 44.2561 51.4356 44.4393 51.0819 44.6974C50.2869 45.2776 49.8493 46.1637 49.8826 47.1283C49.8844 47.1725 49.8862 47.2158 49.8908 47.2592C49.9936 48.591 50.9772 49.4618 52.2802 50.4047C52.3036 50.4219 52.3271 50.439 52.3506 50.4553L54.5595 44.2769C54.379 44.2173 54.1986 44.1686 54.0199 44.1316ZM55.3274 54.6773C55.2317 53.6911 54.8717 52.9936 54.342 52.4043C53.8512 51.8566 53.2132 51.4027 52.5031 50.8983L52.4841 50.8848L52.2829 51.4478L51.0494 54.8975L49.999 57.8338C50.7778 58.1063 51.5691 58.1866 52.3036 58.081C52.9885 57.9826 53.6247 57.7237 54.1562 57.3095C54.9989 56.6535 55.4258 55.6943 55.3274 54.6773ZM55.3274 54.6773C55.2317 53.6911 54.8717 52.9936 54.342 52.4043C53.8512 51.8566 53.2132 51.4027 52.5031 50.8983L52.4841 50.8848L52.2829 51.4478L51.0494 54.8975L49.999 57.8338C50.7778 58.1063 51.5691 58.1866 52.3036 58.081C52.9885 57.9826 53.6247 57.7237 54.1562 57.3095C54.9989 56.6535 55.4258 55.6943 55.3274 54.6773ZM52.2558 50.7215C52.2648 50.7278 52.273 50.7341 52.2811 50.7395V50.6511L52.2558 50.7215ZM54.0199 44.1316C53.409 44.0062 52.8108 44.0134 52.2594 44.1515C51.8335 44.2561 51.4356 44.4393 51.0819 44.6974C50.2869 45.2776 49.8493 46.1637 49.8826 47.1283C49.8844 47.1725 49.8862 47.2158 49.8908 47.2592C49.9936 48.591 50.9772 49.4618 52.2802 50.4047C52.3036 50.4219 52.3271 50.439 52.3506 50.4553L54.5595 44.2769C54.379 44.2173 54.1986 44.1686 54.0199 44.1316ZM52.2558 50.7215C52.2648 50.7278 52.273 50.7341 52.2811 50.7395V50.6511L52.2558 50.7215ZM54.0199 44.1316C53.409 44.0062 52.8108 44.0134 52.2594 44.1515C51.8335 44.2561 51.4356 44.4393 51.0819 44.6974C50.2869 45.2776 49.8493 46.1637 49.8826 47.1283C49.8844 47.1725 49.8862 47.2158 49.8908 47.2592C49.9936 48.591 50.9772 49.4618 52.2802 50.4047C52.3036 50.4219 52.3271 50.439 52.3506 50.4553L54.5595 44.2769C54.379 44.2173 54.1986 44.1686 54.0199 44.1316ZM55.3274 54.6773C55.2317 53.6911 54.8717 52.9936 54.342 52.4043C53.8512 51.8566 53.2132 51.4027 52.5031 50.8983L52.4841 50.8848L52.2829 51.4478L51.0494 54.8975L49.999 57.8338C50.7778 58.1063 51.5691 58.1866 52.3036 58.081C52.9885 57.9826 53.6247 57.7237 54.1562 57.3095C54.9989 56.6535 55.4258 55.6943 55.3274 54.6773ZM55.3274 54.6773C55.2317 53.6911 54.8717 52.9936 54.342 52.4043C53.8512 51.8566 53.2132 51.4027 52.5031 50.8983L52.4841 50.8848L52.2829 51.4478L51.0494 54.8975L49.999 57.8338C50.7778 58.1063 51.5691 58.1866 52.3036 58.081C52.9885 57.9826 53.6247 57.7237 54.1562 57.3095C54.9989 56.6535 55.4258 55.6943 55.3274 54.6773ZM54.0199 44.1316C53.409 44.0062 52.8108 44.0134 52.2594 44.1515C51.8335 44.2561 51.4356 44.4393 51.0819 44.6974C50.2869 45.2776 49.8493 46.1637 49.8826 47.1283C49.8844 47.1725 49.8862 47.2158 49.8908 47.2592C49.9936 48.591 50.9772 49.4618 52.2802 50.4047C52.3036 50.4219 52.3271 50.439 52.3506 50.4553L54.5595 44.2769C54.379 44.2173 54.1986 44.1686 54.0199 44.1316ZM52.2558 50.7215C52.2648 50.7278 52.273 50.7341 52.2811 50.7395V50.6511L52.2558 50.7215ZM52.2558 50.7215C52.2648 50.7278 52.273 50.7341 52.2811 50.7395V50.6511L52.2558 50.7215ZM54.0199 44.1316C53.409 44.0062 52.8108 44.0134 52.2594 44.1515C51.8335 44.2561 51.4356 44.4393 51.0819 44.6974C50.2869 45.2776 49.8493 46.1637 49.8826 47.1283C49.8844 47.1725 49.8862 47.2158 49.8908 47.2592C49.9936 48.591 50.9772 49.4618 52.2802 50.4047C52.3036 50.4219 52.3271 50.439 52.3506 50.4553L54.5595 44.2769C54.379 44.2173 54.1986 44.1686 54.0199 44.1316ZM55.3274 54.6773C55.2317 53.6911 54.8717 52.9936 54.342 52.4043C53.8512 51.8566 53.2132 51.4027 52.5031 50.8983L52.4841 50.8848L52.2829 51.4478L51.0494 54.8975L49.999 57.8338C50.7778 58.1063 51.5691 58.1866 52.3036 58.081C52.9885 57.9826 53.6247 57.7237 54.1562 57.3095C54.9989 56.6535 55.4258 55.6943 55.3274 54.6773ZM52.2558 50.7215C52.2648 50.7278 52.273 50.7341 52.2811 50.7395V50.6511L52.2558 50.7215ZM54.0199 44.1316C53.409 44.0062 52.8108 44.0134 52.2594 44.1515C51.8335 44.2561 51.4356 44.4393 51.0819 44.6974C50.2869 45.2776 49.8493 46.1637 49.8826 47.1283C49.8844 47.1725 49.8862 47.2158 49.8908 47.2592C49.9936 48.591 50.9772 49.4618 52.2802 50.4047C52.3036 50.4219 52.3271 50.439 52.3506 50.4553L54.5595 44.2769C54.379 44.2173 54.1986 44.1686 54.0199 44.1316ZM55.3274 54.6773C55.2317 53.6911 54.8717 52.9936 54.342 52.4043C53.8512 51.8566 53.2132 51.4027 52.5031 50.8983L52.4841 50.8848L52.2829 51.4478L51.0494 54.8975L49.999 57.8338C50.7778 58.1063 51.5691 58.1866 52.3036 58.081C52.9885 57.9826 53.6247 57.7237 54.1562 57.3095C54.9989 56.6535 55.4258 55.6943 55.3274 54.6773ZM55.3274 54.6773C55.2317 53.6911 54.8717 52.9936 54.342 52.4043C53.8512 51.8566 53.2132 51.4027 52.5031 50.8983L52.4841 50.8848L52.2829 51.4478L51.0494 54.8975L49.999 57.8338C50.7778 58.1063 51.5691 58.1866 52.3036 58.081C52.9885 57.9826 53.6247 57.7237 54.1562 57.3095C54.9989 56.6535 55.4258 55.6943 55.3274 54.6773ZM54.0199 44.1316C53.409 44.0062 52.8108 44.0134 52.2594 44.1515C51.8335 44.2561 51.4356 44.4393 51.0819 44.6974C50.2869 45.2776 49.8493 46.1637 49.8826 47.1283C49.8844 47.1725 49.8862 47.2158 49.8908 47.2592C49.9936 48.591 50.9772 49.4618 52.2802 50.4047C52.3036 50.4219 52.3271 50.439 52.3506 50.4553L54.5595 44.2769C54.379 44.2173 54.1986 44.1686 54.0199 44.1316ZM52.2558 50.7215C52.2648 50.7278 52.273 50.7341 52.2811 50.7395V50.6511L52.2558 50.7215ZM52.2558 50.7215C52.2648 50.7278 52.273 50.7341 52.2811 50.7395V50.6511L52.2558 50.7215ZM54.0199 44.1316C53.409 44.0062 52.8108 44.0134 52.2594 44.1515C51.8335 44.2561 51.4356 44.4393 51.0819 44.6974C50.2869 45.2776 49.8493 46.1637 49.8826 47.1283C49.8844 47.1725 49.8862 47.2158 49.8908 47.2592C49.9936 48.591 50.9772 49.4618 52.2802 50.4047C52.3036 50.4219 52.3271 50.439 52.3506 50.4553L54.5595 44.2769C54.379 44.2173 54.1986 44.1686 54.0199 44.1316ZM55.3274 54.6773C55.2317 53.6911 54.8717 52.9936 54.342 52.4043C53.8512 51.8566 53.2132 51.4027 52.5031 50.8983L52.4841 50.8848L52.2829 51.4478L51.0494 54.8975L49.999 57.8338C50.7778 58.1063 51.5691 58.1866 52.3036 58.081C52.9885 57.9826 53.6247 57.7237 54.1562 57.3095C54.9989 56.6535 55.4258 55.6943 55.3274 54.6773ZM55.3274 54.6773C55.2317 53.6911 54.8717 52.9936 54.342 52.4043C53.8512 51.8566 53.2132 51.4027 52.5031 50.8983L52.4841 50.8848L52.2829 51.4478L51.0494 54.8975L49.999 57.8338C50.7778 58.1063 51.5691 58.1866 52.3036 58.081C52.9885 57.9826 53.6247 57.7237 54.1562 57.3095C54.9989 56.6535 55.4258 55.6943 55.3274 54.6773ZM54.0199 44.1316C53.409 44.0062 52.8108 44.0134 52.2594 44.1515C51.8335 44.2561 51.4356 44.4393 51.0819 44.6974C50.2869 45.2776 49.8493 46.1637 49.8826 47.1283C49.8844 47.1725 49.8862 47.2158 49.8908 47.2592C49.9936 48.591 50.9772 49.4618 52.2802 50.4047C52.3036 50.4219 52.3271 50.439 52.3506 50.4553L54.5595 44.2769C54.379 44.2173 54.1986 44.1686 54.0199 44.1316ZM52.2558 50.7215C52.2648 50.7278 52.273 50.7341 52.2811 50.7395V50.6511L52.2558 50.7215ZM54.0199 44.1316C53.409 44.0062 52.8108 44.0134 52.2594 44.1515C51.8335 44.2561 51.4356 44.4393 51.0819 44.6974C50.2869 45.2776 49.8493 46.1637 49.8826 47.1283C49.8844 47.1725 49.8862 47.2158 49.8908 47.2592C49.9936 48.591 50.9772 49.4618 52.2802 50.4047C52.3036 50.4219 52.3271 50.439 52.3506 50.4553L54.5595 44.2769C54.379 44.2173 54.1986 44.1686 54.0199 44.1316ZM52.2558 50.7215C52.2648 50.7278 52.273 50.7341 52.2811 50.7395V50.6511L52.2558 50.7215ZM55.3274 54.6773C55.2317 53.6911 54.8717 52.9936 54.342 52.4043C53.8512 51.8566 53.2132 51.4027 52.5031 50.8983L52.4841 50.8848L52.2829 51.4478L51.0494 54.8975L49.999 57.8338C50.7778 58.1063 51.5691 58.1866 52.3036 58.081C52.9885 57.9826 53.6247 57.7237 54.1562 57.3095C54.9989 56.6535 55.4258 55.6943 55.3274 54.6773ZM55.3274 54.6773C55.2317 53.6911 54.8717 52.9936 54.342 52.4043C53.8512 51.8566 53.2132 51.4027 52.5031 50.8983L52.4841 50.8848L52.2829 51.4478L51.0494 54.8975L49.999 57.8338C50.7778 58.1063 51.5691 58.1866 52.3036 58.081C52.9885 57.9826 53.6247 57.7237 54.1562 57.3095C54.9989 56.6535 55.4258 55.6943 55.3274 54.6773ZM54.0199 44.1316C53.409 44.0062 52.8108 44.0134 52.2594 44.1515C51.8335 44.2561 51.4356 44.4393 51.0819 44.6974C50.2869 45.2776 49.8493 46.1637 49.8826 47.1283C49.8844 47.1725 49.8862 47.2158 49.8908 47.2592C49.9936 48.591 50.9772 49.4618 52.2802 50.4047C52.3036 50.4219 52.3271 50.439 52.3506 50.4553L54.5595 44.2769C54.379 44.2173 54.1986 44.1686 54.0199 44.1316ZM52.2558 50.7215C52.2648 50.7278 52.273 50.7341 52.2811 50.7395V50.6511L52.2558 50.7215ZM52.2558 50.7215C52.2648 50.7278 52.273 50.7341 52.2811 50.7395V50.6511L52.2558 50.7215ZM55.3274 54.6773C55.2317 53.6911 54.8717 52.9936 54.342 52.4043C53.8512 51.8566 53.2132 51.4027 52.5031 50.8983L52.4841 50.8848L52.2829 51.4478L51.0494 54.8975L49.999 57.8338C50.7778 58.1063 51.5691 58.1866 52.3036 58.081C52.9885 57.9826 53.6247 57.7237 54.1562 57.3095C54.9989 56.6535 55.4258 55.6943 55.3274 54.6773ZM55.3274 54.6773C55.2317 53.6911 54.8717 52.9936 54.342 52.4043C53.8512 51.8566 53.2132 51.4027 52.5031 50.8983L52.4841 50.8848L52.2829 51.4478L51.0494 54.8975L49.999 57.8338C50.7778 58.1063 51.5691 58.1866 52.3036 58.081C52.9885 57.9826 53.6247 57.7237 54.1562 57.3095C54.9989 56.6535 55.4258 55.6943 55.3274 54.6773ZM52.2558 50.7215C52.2648 50.7278 52.273 50.7341 52.2811 50.7395V50.6511L52.2558 50.7215ZM52.2558 50.7215C52.2648 50.7278 52.273 50.7341 52.2811 50.7395V50.6511L52.2558 50.7215ZM55.3274 54.6773C55.2317 53.6911 54.8717 52.9936 54.342 52.4043C53.8512 51.8566 53.2132 51.4027 52.5031 50.8983L52.4841 50.8848L52.2829 51.4478L51.0494 54.8975L49.999 57.8338C50.7778 58.1063 51.5691 58.1866 52.3036 58.081C52.9885 57.9826 53.6247 57.7237 54.1562 57.3095C54.9989 56.6535 55.4258 55.6943 55.3274 54.6773ZM55.3274 54.6773C55.2317 53.6911 54.8717 52.9936 54.342 52.4043C53.8512 51.8566 53.2132 51.4027 52.5031 50.8983L52.4841 50.8848L52.2829 51.4478L51.0494 54.8975L49.999 57.8338C50.7778 58.1063 51.5691 58.1866 52.3036 58.081C52.9885 57.9826 53.6247 57.7237 54.1562 57.3095C54.9989 56.6535 55.4258 55.6943 55.3274 54.6773ZM52.2558 50.7215C52.2648 50.7278 52.273 50.7341 52.2811 50.7395V50.6511L52.2558 50.7215ZM52.2558 50.7215C52.2648 50.7278 52.273 50.7341 52.2811 50.7395V50.6511L52.2558 50.7215ZM52.2558 50.7215C52.2648 50.7278 52.273 50.7341 52.2811 50.7395V50.6511L52.2558 50.7215ZM52.2558 50.7215C52.2648 50.7278 52.273 50.7341 52.2811 50.7395V50.6511L52.2558 50.7215ZM52.2558 50.7215C52.2648 50.7278 52.273 50.7341 52.2811 50.7395V50.6511L52.2558 50.7215Z" fill="#0AF53D"></path><path d="M66.3327 43.3215C65.2761 41.3905 63.8179 39.6724 62.0204 38.3063C63.8206 38.2187 65.6208 38.1303 67.421 38.0419C67.1061 37.81 66.7776 37.5925 66.4374 37.3868C66.4347 37.385 66.4302 37.3814 66.4257 37.3804C64.6408 37.4671 62.8569 37.5528 61.073 37.6403H61.0721C60.4964 37.2659 59.8918 36.9248 59.2575 36.6234L64.593 36.4158C64.307 36.2904 64.0155 36.1704 63.7214 36.0594C63.1836 35.8582 62.6241 35.684 62.0574 35.5397C60.8095 35.2229 59.4975 35.0551 58.1503 35.0542H58.0736L52.2264 35.0632C51.8519 35.0659 51.4783 35.0831 51.1066 35.1129C45.1438 35.5983 39.6955 39.4342 37.4405 45.4077C37.4306 45.4321 37.4225 45.4564 37.4125 45.4817C37.0886 46.3525 36.845 47.235 36.6798 48.1193C36.6627 48.2095 36.6464 48.2997 36.6311 48.39C36.429 49.5793 36.3649 50.7713 36.4317 51.9443C36.4786 52.7673 36.5887 53.5812 36.761 54.3798L40.5437 51.5148C40.6935 51.4011 40.9064 51.4309 41.0201 51.5789C41.0698 51.6447 41.0941 51.7232 41.0905 51.7999C41.086 51.8983 41.0391 51.9939 40.9543 52.058L36.9857 55.0655C36.9695 55.0782 36.9532 55.089 36.9343 55.0971C37.0236 55.4373 37.1238 55.7748 37.2348 56.1077L41.2042 53.1011C41.3134 53.6859 41.4668 54.2606 41.6644 54.8174L37.8628 57.6977C38.6614 59.4347 39.7695 61.0291 41.1501 62.3917C42.6895 63.9094 44.5627 65.1366 46.7166 65.946C47.9014 66.3918 49.107 66.6869 50.3107 66.8403C50.9856 66.9269 51.6597 66.9693 52.3292 66.9684C52.9988 66.9675 53.6638 66.9251 54.3216 66.8403C59.9974 66.1175 65.101 62.3529 67.264 56.6221C68.9775 52.0851 68.4912 47.2593 66.3327 43.3215ZM57.4771 47.4299C57.4049 47.4479 57.3318 47.4037 57.3138 47.3315C57.0512 46.2686 56.258 44.952 54.8116 44.37L52.5774 50.6197L52.6577 50.6774C53.3696 51.1845 54.0365 51.6574 54.5544 52.2421C55.1067 52.862 55.4929 53.6073 55.5939 54.6514C55.7022 55.7621 55.2375 56.8089 54.3198 57.5235C53.7414 57.9738 53.0475 58.2535 52.3022 58.3528C52.0937 58.3826 51.8808 58.397 51.6651 58.397C51.0894 58.397 50.493 58.295 49.9055 58.0884L49.3777 59.5655C49.3578 59.6206 49.3055 59.6549 49.2504 59.6549C49.2351 59.6549 49.2197 59.6522 49.2044 59.6468C49.134 59.6224 49.0979 59.5448 49.1232 59.4744L49.6538 57.9918C49.1015 57.7617 48.6188 57.4351 48.21 57.0462C47.0722 55.9652 46.5091 54.405 46.6174 53.1183C46.6237 53.0434 46.6887 52.9892 46.7636 52.9947C46.8385 53.001 46.8935 53.0659 46.8872 53.1408C46.7834 54.368 47.3284 55.8596 48.4266 56.882C48.802 57.2321 49.2432 57.5271 49.7449 57.7374L50.6536 55.1955L52.2534 50.7216C50.9261 49.7697 49.8234 48.8439 49.6357 47.4506C49.6222 47.3487 49.6132 47.244 49.6096 47.1375C49.5735 46.0818 50.0508 45.1127 50.9198 44.4783C51.315 44.1905 51.7689 43.9892 52.2561 43.8791C52.8986 43.733 53.5997 43.7447 54.2973 43.9207C54.4146 43.9495 54.5319 43.9838 54.6483 44.0235L54.8287 43.5173L55.177 42.5446C55.2023 42.4742 55.2799 42.4372 55.3503 42.4625C55.4207 42.4877 55.4577 42.5653 55.4324 42.6357L55.224 43.2186L54.9027 44.1156C56.4493 44.7328 57.2967 46.1359 57.5764 47.2666C57.5944 47.3387 57.5502 47.4127 57.4771 47.4299Z" fill="#0AF53D"></path><path d="M52.2504 50.7217L50.6506 55.1955L48.4236 56.882C47.3254 55.8597 46.7804 54.3681 46.8842 53.1409C46.8905 53.066 46.8354 53.001 46.7606 52.9947C46.6857 52.9893 46.6207 53.0434 46.6144 53.1183C46.5061 54.4051 47.0692 55.9652 48.207 57.0462L45.0091 59.4672C44.8322 59.3156 44.659 59.1559 44.4939 58.9926C43.3398 57.8556 42.4582 56.4868 41.8924 54.9916C41.7255 54.5476 41.5838 54.0938 41.4746 53.6291L49.6327 47.4507C49.8204 48.8439 50.9231 49.7697 52.2504 50.7217Z" fill="white"></path><path d="M52.2694 50.6509V50.7393C52.2613 50.7339 52.2532 50.7276 52.2441 50.7213L52.2694 50.6509Z" fill="white"></path><path d="M54.3337 52.4053L52.2826 53.9582L51.041 54.8985L52.2745 51.4488L52.4757 50.8857L52.4947 50.8993C53.2048 51.4037 53.8428 51.8576 54.3337 52.4053Z" fill="white"></path><path d="M54.5535 44.2776L52.3446 50.456C52.3211 50.4397 52.2976 50.4226 52.2742 50.4054C50.9712 49.4625 49.9876 48.5917 49.8848 47.2599L52.2579 45.4624L54.0139 44.1323C54.1926 44.1693 54.373 44.218 54.5535 44.2776Z" fill="white"></path><path d="M54.8264 43.5176L54.6459 44.0238C54.5295 43.9841 54.4122 43.9498 54.2949 43.9209L54.8264 43.5176Z" fill="white"></path><path d="M62.4779 46.2445L54.5571 52.2424C54.0392 51.6577 53.3723 51.1848 52.6604 50.6777L52.5801 50.62L54.8143 44.3703C56.2608 44.9523 57.0539 46.2689 57.3165 47.3318C57.3345 47.404 57.4076 47.4482 57.4798 47.4302C57.5529 47.413 57.5971 47.339 57.5791 47.2668C57.2994 46.1362 56.452 44.7331 54.9054 44.1159L55.2267 43.2189L57.8263 41.25C58.2459 41.4819 58.6457 41.74 59.0246 42.0206C60.3358 42.9915 61.3969 44.2259 62.1594 45.6192C62.2713 45.824 62.3778 46.0333 62.4779 46.2445Z" fill="white"></path><path d="M37.2422 56.1086C37.3072 56.3026 37.3757 56.4948 37.4479 56.6861C37.5761 57.0281 37.7186 57.3665 37.8702 57.6976L41.6718 54.8173C41.4733 54.2597 41.3199 53.6858 41.2107 53.1011L37.2422 56.1086Z" fill="white"></path><path d="M57.5718 47.2652C57.292 46.1345 56.4447 44.7314 54.8981 44.1142L55.2193 43.2172L55.4278 42.6343C55.453 42.5639 55.4161 42.4863 55.3457 42.4611C55.2753 42.4358 55.1977 42.4728 55.1724 42.5432L54.8241 43.5159L54.6436 44.0221C54.5272 43.9824 54.4099 43.9481 54.2926 43.9193C53.5951 43.7433 52.894 43.7316 52.2515 43.8778C51.7643 43.9878 51.3104 44.1891 50.9151 44.4769C50.0462 45.1113 49.5688 46.0804 49.6049 47.1361C49.6086 47.2426 49.6176 47.3473 49.6311 47.4492C49.8188 48.8425 50.9215 49.7683 52.2488 50.7203L50.649 55.1941L49.7403 57.736C49.2386 57.5258 48.7973 57.2307 48.422 56.8806C47.3238 55.8582 46.7788 54.3666 46.8826 53.1394C46.8889 53.0646 46.8338 52.9996 46.7589 52.9933C46.684 52.9879 46.6191 53.042 46.6128 53.1169C46.5045 54.4036 47.0675 55.9638 48.2054 57.0448C48.6142 57.4337 49.0969 57.7604 49.6492 57.9905L49.1186 59.473C49.0933 59.5434 49.1294 59.621 49.1998 59.6454C49.2151 59.6508 49.2305 59.6535 49.2458 59.6535C49.3009 59.6535 49.3532 59.6192 49.373 59.5642L49.9009 58.087C50.4883 58.2936 51.0848 58.3956 51.6605 58.3956C51.8761 58.3956 52.0891 58.3812 52.2975 58.3514C53.0429 58.2521 53.7368 57.9724 54.3152 57.5221C55.2329 56.8075 55.6976 55.7608 55.5893 54.65C55.4882 53.606 55.102 52.8606 54.5498 52.2407C54.0319 51.656 53.365 51.1832 52.6531 50.676L52.5728 50.6183L54.807 44.3686C56.2534 44.9506 57.0466 46.2672 57.3092 47.3301C57.3272 47.4023 57.4003 47.4465 57.4725 47.4285C57.5456 47.4113 57.5898 47.3374 57.5718 47.2652ZM54.335 52.4031C54.8647 52.9924 55.2248 53.6899 55.3204 54.6761C55.4188 55.6931 54.9919 56.6523 54.1492 57.3083C53.6177 57.7225 52.9815 57.9814 52.2966 58.0798C51.5621 58.1854 50.7708 58.1051 49.992 57.8326L51.0424 54.8963L52.2759 51.4466L52.4771 50.8836L52.4961 50.8971C53.2062 51.4015 53.8442 51.8554 54.335 52.4031ZM52.3436 50.4541C52.3201 50.4378 52.2966 50.4207 52.2732 50.4035C50.9702 49.4606 49.9866 48.5898 49.8838 47.2579C49.8793 47.2146 49.8774 47.1713 49.8756 47.1271C49.8423 46.1625 50.2799 45.2764 51.0749 44.6962C51.4286 44.4381 51.8265 44.2549 52.2524 44.1503C52.8038 44.0122 53.402 44.005 54.0129 44.1304C54.1916 44.1674 54.372 44.2161 54.5525 44.2757L52.3436 50.4541Z" fill="#20252A"></path><path d="M40.9491 52.0566L36.9805 55.0632C36.9643 55.0758 36.9481 55.0866 36.9291 55.0948C36.8641 54.8574 36.8064 54.6192 36.7559 54.3774L41.0023 51.1235C40.9888 51.2345 40.9491 52.0566 40.9491 52.0566Z" fill="white"></path><path d="M44.5193 59.3628C44.486 59.3628 44.4526 59.3502 44.4264 59.3258C43.1351 58.0977 42.1344 56.5547 41.5344 54.8628C40.7665 52.7035 40.6636 50.3899 41.2348 48.1728C41.3341 47.7857 41.4613 47.3832 41.6129 46.9772C42.0857 45.7292 42.7562 44.5896 43.6071 43.5907C43.6558 43.5338 43.7406 43.5266 43.7975 43.5753C43.8543 43.6241 43.8615 43.7089 43.8128 43.7657C42.9817 44.7403 42.3266 45.8529 41.8655 47.0719C41.7176 47.4681 41.593 47.8615 41.4956 48.2396C40.937 50.4052 41.0381 52.6638 41.7879 54.7717C42.3745 56.423 43.3508 57.9299 44.6114 59.1291C44.6655 59.1805 44.6673 59.2662 44.6159 59.3204C44.5906 59.3484 44.5554 59.3628 44.5193 59.3628Z" fill="#20252A"></path></g><defs><clipPath id="clip0_3606_150253"><rect width="80" height="80" fill="white"></rect></clipPath><clipPath id="clip1_3606_150253"><rect width="64.7035" height="65.2402" fill="white" transform="translate(12.9258 0.769043) rotate(14.096)"></rect></clipPath></defs></svg>