<svg width="80" height="80" viewBox="0 0 80 80" fill="none" xmlns="http://www.w3.org/2000/svg" class="w-48 lg:w-80 h-48 lg:h-80 rounded-[8px] lg:rounded-md"><g clip-path="url(#clip0_3606_150252)"><g clip-path="url(#clip1_3606_150252)"><path d="M46.8327 23.5477L9.32595 32.7702C7.14606 33.3062 5.81343 35.5079 6.34944 37.6878L12.0472 60.8599C12.5832 63.0398 14.7849 64.3724 16.9648 63.8364L54.4715 54.6139C56.6514 54.0779 57.9841 51.8762 57.4481 49.6963L51.7503 26.5242C51.2143 24.3443 49.0126 23.0117 46.8327 23.5477Z" fill="#009420"></path><path d="M20.8188 51.755L16.1712 52.8978C16.0792 52.9204 15.9836 52.9247 15.89 52.9104C15.7963 52.8961 15.7064 52.8635 15.6253 52.8144C15.5443 52.7654 15.4737 52.7008 15.4176 52.6245C15.3614 52.5481 15.3209 52.4615 15.2983 52.3695L14.5219 49.2118C14.4762 49.026 14.5062 48.8297 14.6053 48.666C14.7043 48.5023 14.8644 48.3847 15.0502 48.339L19.6978 47.1962C19.7899 47.1733 19.8856 47.1687 19.9794 47.1829C20.0732 47.1971 20.1633 47.2296 20.2445 47.2787C20.3257 47.3278 20.3964 47.3924 20.4525 47.4688C20.5087 47.5453 20.5492 47.6321 20.5717 47.7243L21.3481 50.8819C21.3708 50.974 21.375 51.0696 21.3607 51.1634C21.3463 51.2571 21.3136 51.3471 21.2645 51.4282C21.2153 51.5093 21.1507 51.5799 21.0742 51.636C20.9977 51.692 20.9109 51.7325 20.8188 51.755V51.755Z" fill="#EFF4F8"></path><g clip-path="url(#clip2_3606_150252)"><g clip-path="url(#clip3_3606_150252)"><path d="M13.7656 41.6897C13.7148 41.7022 13.6577 41.6893 13.6006 41.6764C13.4802 41.6251 13.4111 41.4534 13.4623 41.333C13.5585 41.0667 13.5977 40.7875 13.5289 40.5079C13.4602 40.2282 13.3214 39.9928 13.0873 39.8077C12.9923 39.7502 12.9802 39.5914 13.0631 39.4902C13.146 39.3889 13.3301 39.3706 13.4314 39.4535C13.7351 39.7024 13.9559 40.0524 14.0434 40.4083C14.1372 40.7896 14.0976 41.1768 13.9439 41.5381C13.9118 41.6268 13.8419 41.671 13.7656 41.6897Z" fill="white"></path><path d="M15.0588 42.0191C15.008 42.0316 14.9572 42.044 14.9192 41.9995C14.7734 41.9544 14.7105 41.8082 14.7555 41.6623C14.9096 41.1931 14.9242 40.7043 14.8054 40.2213C14.6866 39.7383 14.4471 39.3119 14.0929 38.9677C13.96 38.8656 13.9733 38.7006 14.0562 38.5993C14.1645 38.4918 14.3233 38.4797 14.4308 38.5881C14.8545 38.9961 15.1699 39.5116 15.3136 40.0963C15.4574 40.681 15.4424 41.2777 15.2308 41.842C15.1988 41.9307 15.135 42.0003 15.0588 42.0191Z" fill="white"></path><path d="M16.3206 42.3284C16.2697 42.3409 16.2189 42.3534 16.1873 42.3342C16.0414 42.2892 15.9785 42.1429 16.0235 41.9971C16.2355 41.3249 16.2446 40.5948 16.0759 39.9084C15.9071 39.2221 15.5667 38.6049 15.0672 38.1077C14.9597 37.9993 14.9476 37.8405 15.0559 37.733C15.1642 37.6255 15.3292 37.6389 15.4304 37.7218C15.9995 38.2828 16.3903 38.9954 16.5841 39.7835C16.7779 40.5715 16.7621 41.3841 16.518 42.145C16.486 42.2338 16.3968 42.3096 16.3206 42.3284Z" fill="white"></path><path d="M17.609 42.632C17.5582 42.6445 17.5328 42.6508 17.4757 42.6379C17.3299 42.5928 17.267 42.4466 17.2866 42.307C17.5565 41.4318 17.5664 40.4859 17.3476 39.5961C17.1289 38.7064 16.6814 37.8729 16.0364 37.2228C15.9289 37.1144 15.9423 36.9494 16.0506 36.8419C16.1589 36.7344 16.3239 36.7477 16.4313 36.8561C17.1205 37.5762 17.6121 38.4798 17.8559 39.4712C18.0934 40.4372 18.0768 41.4657 17.8065 42.4487C17.749 42.5437 17.6853 42.6133 17.609 42.632Z" fill="white"></path></g></g></g><g clip-path="url(#clip4_3606_150252)"><path d="M22.8113 21.9567L24.8224 30.2201L25.2342 31.9078L25.4527 32.8071L33.1884 64.5784C33.9232 67.5909 36.9488 69.4352 39.9492 68.6975L61.964 63.2934C64.9644 62.5592 66.8014 59.5203 66.0666 56.5078L55.6895 13.8884C54.9571 10.8772 51.9315 9.03161 48.9311 9.76695L37.4134 12.595L26.9163 15.1711C23.9159 15.9088 22.0789 18.9466 22.8113 21.9567Z" fill="#20252A"></path><path d="M22.8113 21.9567L24.8224 30.2201L35.7337 20.2943L40.4882 15.9655C39.9179 15.5725 38.7677 14.2621 37.4146 12.5962L26.9163 15.1711C23.9159 15.9088 22.0789 18.9466 22.8113 21.9567Z" fill="#00EB33"></path><path d="M25.2344 31.9066L25.4529 32.8059C28.5998 29.9731 31.7454 27.1402 34.8923 24.3074C35.0556 24.1567 35.0003 23.8565 34.8503 23.7251C34.6654 23.5708 34.4372 23.6178 34.2704 23.7673C33.227 24.7112 32.1752 25.6551 31.1319 26.5965C29.1677 28.365 27.2022 30.1346 25.2344 31.9066Z" fill="#00EB33"></path><path d="M46.0442 67.2005L69.8876 61.348C72.4557 60.7175 74.0286 58.1161 73.4006 55.5376L62.6417 11.3499C62.0138 8.77144 59.4228 7.19227 56.8547 7.82273L33.0113 13.6753C30.4431 14.3057 28.8703 16.9071 29.497 19.4856L40.2559 63.6733C40.885 66.2518 43.476 67.831 46.0442 67.2005Z" fill="#00CC2C"></path><path d="M43.2766 59.614L68.8535 53.3354L59.6072 15.3649L34.0303 21.6434L43.2766 59.614Z" fill="#00EB33"></path><path d="M65.4957 54.1597L68.8535 53.3354L59.6072 15.3649L56.2495 16.1891L65.4957 54.1597Z" fill="white"></path><path d="M45.8577 15.7223C46.5029 15.7223 47.0259 15.1972 47.0259 14.5494C47.0259 13.9016 46.5029 13.3765 45.8577 13.3765C45.2125 13.3765 44.6895 13.9016 44.6895 14.5494C44.6895 15.1972 45.2125 15.7223 45.8577 15.7223Z" fill="#20252A"></path><path d="M50.0527 29.4233L53.1667 42.7272" stroke="#009420" stroke-width="2" stroke-miterlimit="10" stroke-linecap="square"></path><path d="M53.7542 30.7797C52.0171 30.2944 47.0212 30.8004 47.7033 33.7164C48.5199 37.2073 54.3881 34.53 55.1087 37.6103C55.8293 40.6907 51.7739 41.398 48.7693 41.0477" stroke="#009420" stroke-width="2" stroke-miterlimit="10" stroke-linecap="square"></path></g></g><defs><clipPath id="clip0_3606_150252"><rect width="80" height="80" fill="white"></rect></clipPath><clipPath id="clip1_3606_150252"><rect width="46.7532" height="31.9916" fill="white" transform="translate(5.37891 33.7407) rotate(-13.8143)"></rect></clipPath><clipPath id="clip2_3606_150252"><rect width="6.29097" height="6.29096" fill="white" transform="translate(11.7598 37.7349) rotate(-13.8143)"></rect></clipPath><clipPath id="clip3_3606_150252"><rect width="4.76278" height="6.02098" fill="white" transform="translate(12.5117 37.6851) rotate(-13.8143)"></rect></clipPath><clipPath id="clip4_3606_150252"><rect width="63.0105" height="63.7789" fill="white" transform="translate(22.6445 7.68408)"></rect></clipPath></defs></svg>